<?xml version="1.0"?>
<svg xmlns="http://www.w3.org/2000/svg" width="50" height="50" viewBox="0 0 50 50">
    <path d="M27,44h-4c-0.552,0-1-0.447-1-1V30.224l-11.104,6.345c-0.475,0.273-1.081,0.11-1.358-0.361l-2-3.4 c-0.135-0.229-0.173-0.504-0.105-0.761c0.068-0.258,0.235-0.478,0.466-0.611L19.005,25L7.898,18.565 c-0.23-0.133-0.398-0.354-0.466-0.611c-0.067-0.258-0.03-0.532,0.105-0.761l2-3.4c0.277-0.472,0.883-0.633,1.358-0.361L22,19.777V7 c0-0.552,0.448-1,1-1h4c0.553,0,1,0.448,1,1v12.777l11.104-6.345c0.476-0.271,1.08-0.111,1.358,0.361l2,3.4 c0.135,0.229,0.173,0.503,0.104,0.761c-0.067,0.257-0.235,0.478-0.466,0.611L30.995,25l11.105,6.435 c0.23,0.134,0.398,0.354,0.466,0.611c0.068,0.257,0.03,0.531-0.104,0.761l-2,3.4c-0.278,0.472-0.883,0.635-1.358,0.361L28,30.224V43 C28,43.553,27.553,44,27,44z"/>
</svg>
